<?xml version="1.0" standalone="no"?>
<!DOCTYPE svg PUBLIC "-//W3C//DTD SVG 20010904//EN"
 "http://www.w3.org/TR/2001/REC-SVG-20010904/DTD/svg10.dtd">
<svg version="1.0" xmlns="http://www.w3.org/2000/svg"
 width="700.000000pt" height="700.000000pt" viewBox="0 0 700.000000 700.000000"
 preserveAspectRatio="xMidYMid meet">
<metadata>
Created by potrace 1.14, written by Peter Selinger 2001-2017
</metadata>
<g transform="translate(0.000000,700.000000) scale(0.100000,-0.100000)"
fill="#000000" stroke="none">
<path d="M695 5876 c-130 -31 -272 -125 -352 -230 -60 -81 -90 -143 -114 -234
-18 -73 -19 -128 -19 -1854 l0 -1778 3043 2 3042 3 80 28 c180 64 312 181 387
345 61 133 58 37 58 1968 l0 1764 -3037 -1 c-2363 -1 -3049 -3 -3088 -13z
m1530 -881 c111 -32 187 -73 256 -134 l53 -48 -39 -46 c-130 -149 -202 -226
-213 -226 -8 -1 -27 8 -42 19 -106 76 -267 113 -392 92 -279 -48 -465 -306
-445 -617 11 -159 61 -279 159 -381 182 -190 468 -205 702 -37 l50 36 68 -72
c37 -40 93 -102 125 -138 l58 -65 -63 -59 c-68 -64 -201 -135 -307 -164 -82
-23 -305 -31 -403 -15 -241 38 -479 168 -609 332 -175 220 -240 527 -177 838
76 371 362 632 774 706 121 22 334 12 445 -21z m3480 0 c111 -32 187 -73 256
-134 l53 -48 -39 -46 c-124 -142 -201 -226 -211 -226 -6 -1 -37 15 -69 34
-245 147 -542 92 -700 -130 -55 -77 -80 -134 -100 -229 -77 -377 162 -716 505
-716 114 0 243 44 343 117 l50 37 56 -60 c31 -33 87 -95 126 -138 l70 -79 -65
-59 c-70 -65 -201 -135 -305 -163 -82 -23 -305 -31 -403 -15 -359 57 -647 282
-752 586 -43 121 -53 193 -53 359 0 140 4 172 27 259 71 271 227 461 479 582
158 76 305 105 502 99 114 -3 157 -8 230 -30z m-2100 -29 c243 -45 407 -125
531 -259 150 -162 217 -357 217 -637 0 -287 -74 -483 -247 -655 -120 -118
-251 -189 -443 -237 -84 -22 -105 -23 -513 -23 l-425 0 -3 905 c-1 498 0 911
3 919 8 21 755 10 880 -13z"/>
<path d="M3132 4069 l3 -544 169 3 c259 4 375 35 476 129 103 95 150 225 150
418 0 276 -119 442 -365 511 -42 11 -117 18 -248 21 l-187 5 2 -543z"/>
</g>
</svg>
